<svg width="150" height="40" viewBox="0 0 150 40" fill="none" xmlns="http://www.w3.org/2000/svg">
<g id="bodog-logo">
<path id="Vector" d="M143.083 21.6011C143.083 24.1689 140.969 26.332 137.255 26.332H131.308C128.535 26.332 126.58 24.3387 126.58 21.9308V21.3014C126.58 18.8985 128.535 16.9052 131.308 16.9052H138.354C141.092 16.9052 143.088 18.8985 143.088 21.3014V21.6011H143.083ZM113.275 21.676C113.275 24.009 111.275 25.9573 108.546 25.9573H101.505C98.7275 25.9573 96.7716 24.009 96.7716 21.676V21.0566C96.7716 18.7286 98.7275 16.7753 101.505 16.7753H108.546C111.275 16.7753 113.275 18.7336 113.275 21.0566V21.676ZM83.0808 21.3863C83.0808 23.7992 81.0804 25.7874 78.3422 25.7874H71.3062C68.5284 25.7874 66.5726 23.7992 66.5726 21.3863V20.7618C66.5726 18.319 68.5284 16.3157 71.3062 16.3157H77.248C80.9665 16.3157 83.0808 18.4788 83.0808 21.0965V21.3863ZM53.2729 21.676C53.2729 24.009 51.2775 25.9573 48.5443 25.9573H41.4983C38.7205 25.9573 36.7746 24.009 36.7746 21.676V21.0566C36.7746 18.7286 38.7255 16.7753 41.4983 16.7753H48.5443C51.2775 16.7753 53.2729 18.7336 53.2729 21.0566V21.676ZM23.465 21.3863C23.465 23.7992 21.4746 25.7874 18.7364 25.7874H11.6954C8.91761 25.7874 6.96673 23.7992 6.96673 21.3863V21.0965C6.96673 18.4788 9.08101 16.3157 12.75 16.3157H18.7364C21.4795 16.3157 23.465 18.319 23.465 20.7618V21.3863ZM138.775 11.0453H130.872C125.614 11.0453 121.123 14.3774 119.935 18.9284C118.83 14.3724 114.275 11.0453 108.972 11.0453H101.07C95.5734 11.0453 90.924 14.5772 90.003 19.3381V1.74347C90.003 0.704384 89.1018 0 88.161 0C85.4971 0 83.0808 2.03822 83.0808 4.61097V12.0445C81.3973 11.0054 79.3276 10.4259 77.7976 10.4259H70.8804C65.5031 10.4259 60.9081 13.9278 59.8435 18.6737C58.6304 14.2575 54.1691 11.0503 48.9701 11.0503H41.0725C35.8437 11.0503 31.3775 14.2575 30.1594 18.6737C29.0998 13.9278 24.5098 10.4259 19.1672 10.4259H12.245C10.7199 10.4259 8.61062 11.0104 6.92711 12.0445V4.61097C6.92216 2.03822 4.50089 0 1.87661 0C0.935829 0 0 0.704384 0 1.74347V21.3913C0 27.1712 5.12478 31.6973 11.2646 31.6973H19.1672C24.391 31.6973 28.8721 28.3702 30.0604 23.7842C31.1547 28.3552 35.7249 31.6973 41.0725 31.6973H48.9701C54.283 31.6973 58.8532 28.3552 59.9426 23.7842C61.1309 28.3652 65.617 31.6973 70.8754 31.6973H78.7681C84.5019 31.6973 89.3147 27.6908 89.8841 22.4104C90.3149 27.6608 95.1971 31.6973 101.065 31.6973H108.967C114.171 31.6973 118.637 28.4801 119.846 24.054C120.925 28.7449 125.51 32.1968 130.867 32.1968H137.795C139.28 32.1968 141.315 31.6523 142.959 30.6532C142.528 32.6464 140.731 34.1451 138.344 34.1451H126.178C125.238 34.1451 124.341 34.8545 124.341 35.8836C124.341 37.9668 126.802 40 129.07 40H138.77C144.87 40 150 35.474 150 29.749V21.3064C150 15.5814 144.87 11.0553 138.77 11.0553" fill="#E80000"/>
</g>
</svg>
